<?xml version="1.0" encoding="utf-8"?>
<!-- Generator: Adobe Illustrator 16.0.0, SVG Export Plug-In . SVG Version: 6.00 Build 0)  -->
<!DOCTYPE svg PUBLIC "-//W3C//DTD SVG 1.1//EN" "http://www.w3.org/Graphics/SVG/1.1/DTD/svg11.dtd">
<svg version="1.1" id="레이어_1" xmlns="http://www.w3.org/2000/svg" xmlns:xlink="http://www.w3.org/1999/xlink" x="0px"
	 y="0px" width="50.221px" height="60.738px" viewBox="0 0 50.221 60.738" enable-background="new 0 0 50.221 60.738"
	 xml:space="preserve">
<g>
	<g>
		<path fill="#FFFFFF" d="M49.221,60.738H1c-0.553,0-1-0.447-1-1V1c0-0.553,0.447-1,1-1h31.896c0.266,0,0.52,0.105,0.707,0.293
			l16.324,16.328c0.188,0.188,0.293,0.441,0.293,0.707v42.41C50.221,60.291,49.773,60.738,49.221,60.738z M2,58.738h46.221V17.742
			L32.482,2H2V58.738z"/>
	</g>
	<g>
		<path fill="#FFFFFF" d="M49.221,18.328H32.896c-0.553,0-1-0.447-1-1V1c0-0.404,0.244-0.77,0.617-0.924
			c0.375-0.154,0.803-0.068,1.09,0.217l16.324,16.328c0.285,0.287,0.371,0.717,0.217,1.09C49.99,18.086,49.625,18.328,49.221,18.328
			z M33.896,16.328h12.91L33.896,3.416V16.328z"/>
	</g>
	<g>
		<path fill="#FFFFFF" d="M38.061,27.469H12.164c-0.553,0-1-0.447-1-1s0.447-1,1-1h25.896c0.553,0,1,0.447,1,1
			S38.613,27.469,38.061,27.469z"/>
	</g>
	<g>
		<path fill="#FFFFFF" d="M38.061,38.074H12.164c-0.553,0-1-0.447-1-1s0.447-1,1-1h25.896c0.553,0,1,0.447,1,1
			S38.613,38.074,38.061,38.074z"/>
	</g>
	<g>
		<path fill="#FFFFFF" d="M23.838,16.863H12.164c-0.553,0-1-0.447-1-1s0.447-1,1-1h11.674c0.553,0,1,0.447,1,1
			S24.391,16.863,23.838,16.863z"/>
	</g>
	<g>
		<path fill="#FFFFFF" d="M38.061,48.68H12.164c-0.553,0-1-0.447-1-1s0.447-1,1-1h25.896c0.553,0,1,0.447,1,1
			S38.613,48.68,38.061,48.68z"/>
	</g>
</g>
</svg>
