<?xml version="1.0" encoding="utf-8"?>
<!-- Generator: Adobe Illustrator 16.0.0, SVG Export Plug-In . SVG Version: 6.00 Build 0)  -->
<!DOCTYPE svg PUBLIC "-//W3C//DTD SVG 1.1//EN" "http://www.w3.org/Graphics/SVG/1.1/DTD/svg11.dtd">
<svg version="1.1" id="레이어_1" xmlns="http://www.w3.org/2000/svg" xmlns:xlink="http://www.w3.org/1999/xlink" x="0px"
	 y="0px" width="62.12px" height="66.477px" viewBox="0 0 62.12 66.477" enable-background="new 0 0 62.12 66.477"
	 xml:space="preserve">
<g>
	<g>
		<path fill="#FFFFFF" d="M47.598,66.477H1c-0.553,0-1-0.447-1-1V9.787c0-0.553,0.447-1,1-1h12.377v2H2v53.689h44.598v-19.65h2
			v20.65C48.598,66.029,48.149,66.477,47.598,66.477z"/>
	</g>
	<g>
		<path fill="#FFFFFF" d="M48.598,30.32h-2V10.787H35.221v-2h12.377c0.552,0,1,0.447,1,1V30.32z"/>
	</g>
	<g>
		<path fill="#FFFFFF" d="M38.217,25.133H10.381c-0.553,0-1-0.447-1-1s0.447-1,1-1h27.836c0.553,0,1,0.447,1,1
			S38.77,25.133,38.217,25.133z"/>
	</g>
	<g>
		<path fill="#FFFFFF" d="M34.703,34.641H10.381c-0.553,0-1-0.447-1-1s0.447-1,1-1h24.322c0.553,0,1,0.447,1,1
			S35.256,34.641,34.703,34.641z"/>
	</g>
	<g>
		<path fill="#FFFFFF" d="M28.477,44.148H10.381c-0.553,0-1-0.447-1-1s0.447-1,1-1h18.096c0.552,0,1,0.447,1,1
			S29.028,44.148,28.477,44.148z"/>
	</g>
	<g>
		<path fill="#FFFFFF" d="M27.221,53.658h-16.84c-0.553,0-1-0.447-1-1s0.447-1,1-1h16.84c0.553,0,1,0.447,1,1
			S27.773,53.658,27.221,53.658z"/>
	</g>
	<g>
		<path fill="#FFFFFF" d="M34.343,13.422H14.254c-1.035,0-1.877-0.842-1.877-1.877V6.967c0-1.035,0.842-1.879,1.877-1.879h5.023
			V1.879C19.277,0.844,20.12,0,21.155,0h6.289c1.035,0,1.878,0.844,1.878,1.879v3.209h5.021c1.035,0,1.878,0.844,1.878,1.879v4.578
			C36.221,12.58,35.378,13.422,34.343,13.422z M14.377,11.422h19.844V7.088h-5.021c-1.035,0-1.877-0.842-1.877-1.877V2h-6.045v3.211
			c0,1.035-0.842,1.877-1.877,1.877h-5.023V11.422z"/>
	</g>
	<g>
		<path fill="#FFFFFF" d="M33.689,54.246c-0.24,0-0.475-0.086-0.66-0.248c-0.268-0.234-0.39-0.594-0.322-0.941l1.838-9.48
			l1.964,0.381l-1.513,7.799l7.441-2.482l0.633,1.896l-9.064,3.025C33.902,54.23,33.795,54.246,33.689,54.246z"/>
	</g>
	<g>
		<path fill="#FFFFFF" d="M58.07,34.123c-0.244,0-0.482-0.09-0.666-0.254l-7.227-6.455c-0.197-0.176-0.316-0.424-0.332-0.689
			c-0.015-0.264,0.076-0.525,0.253-0.723l3.048-3.412c0.367-0.412,1-0.447,1.412-0.08l7.227,6.453
			c0.198,0.178,0.318,0.426,0.333,0.689c0.015,0.266-0.076,0.525-0.253,0.723l-3.049,3.414c-0.176,0.199-0.424,0.318-0.689,0.332
			C58.108,34.123,58.09,34.123,58.07,34.123z M52.256,26.588l5.735,5.123l1.716-1.922l-5.735-5.121L52.256,26.588z"/>
	</g>
	<g>
		<polygon fill="#FFFFFF" points="38.58,51.865 34.51,48.178 33.693,53.248 		"/>
	</g>
	<g>
		<path fill="#FFFFFF" d="M42.753,51.221c-0.237,0-0.476-0.084-0.665-0.254l-7.227-6.455c-0.199-0.178-0.318-0.426-0.333-0.691
			c-0.015-0.264,0.077-0.525,0.255-0.723l15.352-17.1c0.367-0.408,0.998-0.443,1.41-0.078l7.227,6.455
			c0.199,0.178,0.318,0.426,0.333,0.691s-0.077,0.525-0.255,0.723l-15.352,17.1C43.301,51.109,43.027,51.221,42.753,51.221z
			 M36.941,43.688l5.734,5.123l14.016-15.611l-5.735-5.123L36.941,43.688z"/>
	</g>
</g>
</svg>
