<?xml version="1.0" encoding="utf-8"?>
<!-- Generator: Adobe Illustrator 16.0.0, SVG Export Plug-In . SVG Version: 6.00 Build 0)  -->
<!DOCTYPE svg PUBLIC "-//W3C//DTD SVG 1.1//EN" "http://www.w3.org/Graphics/SVG/1.1/DTD/svg11.dtd">
<svg version="1.1" id="레이어_1" xmlns="http://www.w3.org/2000/svg" xmlns:xlink="http://www.w3.org/1999/xlink" x="0px"
	 y="0px" width="70.541px" height="53.734px" viewBox="0 0 70.541 53.734" enable-background="new 0 0 70.541 53.734"
	 xml:space="preserve">
<g>
	<g>
		<g>
			<path fill="#FFFFFF" d="M69.541,53.734H42.859v-2h25.682V49.67c0-7.672-4.648-13.703-11.568-15.012
				c-0.473-0.088-0.814-0.502-0.814-0.982v-2.279c0-0.43,0.277-0.813,0.686-0.949c3.248-1.076,5.111-4.086,5.111-8.26
				c0-4.797-3.902-8.699-8.699-8.699c-4.796,0-8.697,3.902-8.697,8.699c0,4.174,1.863,7.186,5.114,8.26
				c0.409,0.137,0.687,0.518,0.687,0.949v2.279c0,0.482-0.343,0.895-0.815,0.982c-3.244,0.611-6.052,2.271-8.118,4.801l-1.549-1.266
				c2.193-2.686,5.113-4.514,8.482-5.326V32.09c-3.648-1.529-5.801-5.174-5.801-9.902c0-5.898,4.799-10.699,10.697-10.699
				c5.899,0,10.699,4.801,10.699,10.699c0,4.727-2.152,8.371-5.797,9.902v0.779c7.441,1.793,12.383,8.439,12.383,16.801v3.064
				C70.541,53.287,70.093,53.734,69.541,53.734z"/>
		</g>
		<g>
			<path fill="#FFFFFF" d="M42.861,53.734H1c-0.553,0-1-0.447-1-1v-3.938c0-10.695,6.361-19.178,15.918-21.373v-1.418
				c-4.684-1.875-7.455-6.502-7.455-12.535C8.463,6.043,14.504,0,21.932,0c7.425,0,13.465,6.043,13.465,13.471
				c0,6.031-2.77,10.658-7.449,12.535v1.418c9.554,2.195,15.914,10.678,15.914,21.373v3.938
				C43.861,53.287,43.413,53.734,42.861,53.734z M2,51.734h39.861v-2.938c0-10.004-6.068-17.873-15.1-19.578
				c-0.473-0.088-0.814-0.502-0.814-0.982v-2.93c0-0.432,0.275-0.813,0.686-0.949c4.235-1.402,6.764-5.473,6.764-10.887
				C33.396,7.146,28.254,2,21.932,2c-6.324,0-11.469,5.146-11.469,11.471c0,5.416,2.529,9.486,6.769,10.887
				c0.409,0.135,0.687,0.518,0.687,0.949v2.93c0,0.48-0.343,0.895-0.814,0.982C8.069,30.924,2,38.791,2,48.797V51.734z"/>
		</g>
	</g>
	<g>
		<circle fill="#FFFFFF" cx="21.93" cy="37.596" r="1.875"/>
	</g>
	<g>
		<circle fill="#FFFFFF" cx="21.93" cy="45.471" r="1.875"/>
	</g>
</g>
</svg>
