<?xml version="1.0" encoding="utf-8"?>
<!-- Generator: Adobe Illustrator 16.0.0, SVG Export Plug-In . SVG Version: 6.00 Build 0)  -->
<!DOCTYPE svg PUBLIC "-//W3C//DTD SVG 1.1//EN" "http://www.w3.org/Graphics/SVG/1.1/DTD/svg11.dtd">
<svg version="1.1" id="레이어_1" xmlns="http://www.w3.org/2000/svg" xmlns:xlink="http://www.w3.org/1999/xlink" x="0px"
	 y="0px" width="62.413px" height="65.444px" viewBox="0 0 62.413 65.444" enable-background="new 0 0 62.413 65.444"
	 xml:space="preserve">
<g>
	<g>
		<path fill="#FFFFFF" d="M50.478,59.289c-0.553,0-1-0.448-1-1v-2.906c0-0.265,0.105-0.52,0.293-0.707l9.413-9.414
			c0.027-0.027,0.057-0.053,0.087-0.077c0.726-0.575,1.143-1.432,1.143-2.351l-0.008-17.501c0-1.494-0.784-3.001-2.535-3.001
			c-1.749,0-2.531,1.507-2.531,3.001v10.741c0,0.415-0.256,0.787-0.644,0.935c-0.389,0.148-0.826,0.041-1.103-0.269l-0.161-0.18
			c-1.06-1.058-2.791-1.058-3.854,0.005L37.813,48.326c-0.508,0.507-0.791,1.184-0.797,1.905l-0.002,8.059c0,0.552-0.448,1-1,1l0,0
			c-0.553,0-1-0.448-1-1l0.002-8.066c0.011-1.258,0.502-2.431,1.383-3.311l11.764-11.762c1.395-1.396,3.455-1.735,5.176-1.015
			v-8.802c0-2.898,1.905-5.001,4.531-5.001c2.628,0,4.535,2.103,4.535,5.001l0.008,17.501c0,1.515-0.675,2.925-1.854,3.881
			l-9.081,9.082v2.492C51.478,58.841,51.03,59.289,50.478,59.289z"/>
		<path fill="#FFFFFF" d="M37.106,48.619c-0.256,0-0.512-0.098-0.707-0.293c-0.391-0.391-0.391-1.023,0-1.414l11.764-11.763
			c1.842-1.843,4.842-1.843,6.688,0c1.842,1.846,1.842,4.846,0,6.689l-5.605,5.604c-0.391,0.391-1.023,0.391-1.414,0
			s-0.391-1.024,0-1.414l5.605-5.604c1.063-1.063,1.063-2.795-0.001-3.861c-1.063-1.063-2.795-1.063-3.858,0L37.813,48.326
			C37.618,48.521,37.362,48.619,37.106,48.619z"/>
		<path fill="#FFFFFF" d="M52.051,65.444H34.486c-0.553,0-1-0.448-1-1v-6.155c0-0.552,0.447-1,1-1h17.564c0.553,0,1,0.448,1,1v6.155
			C53.051,64.996,52.604,65.444,52.051,65.444z M35.486,63.444h15.564v-4.155H35.486V63.444z"/>
	</g>
	<g>
		<path fill="#FFFFFF" d="M26.396,59.289c-0.552,0-1-0.447-1-1l-0.003-8.066c-0.007-0.711-0.29-1.388-0.799-1.897L12.837,36.563
			c-1.066-1.063-2.797-1.063-3.861,0c-0.043,0.043-0.082,0.09-0.122,0.136c-0.272,0.316-0.725,0.444-1.117,0.298
			c-0.392-0.146-0.663-0.506-0.663-0.924V25.332c0-1.494-0.783-3.001-2.532-3.001c-1.751,0-2.534,1.507-2.534,3.001L2,42.834
			c0,0.921,0.415,1.777,1.14,2.35c0.03,0.024,0.06,0.05,0.087,0.078l9.413,9.414c0.188,0.188,0.293,0.442,0.293,0.707v2.906
			c0,0.552-0.447,1-1,1s-1-0.448-1-1v-2.492l-9.081-9.082C0.674,45.761,0,44.35,0,42.833l0.007-17.502c0-2.897,1.907-5,4.534-5
			c2.626,0,4.532,2.103,4.532,5.001v8.802c1.716-0.718,3.778-0.381,5.177,1.015l11.759,11.764c0.881,0.881,1.373,2.054,1.385,3.301
			l0.003,8.075C27.396,58.84,26.949,59.289,26.396,59.289L26.396,59.289z"/>
		<path fill="#FFFFFF" d="M25.302,48.619c-0.256,0-0.512-0.098-0.707-0.293L12.837,36.563c-1.066-1.063-2.797-1.063-3.861,0
			c-1.063,1.065-1.063,2.797,0,3.86l5.604,5.604c0.391,0.391,0.391,1.024,0,1.414c-0.391,0.391-1.023,0.391-1.414,0l-5.604-5.604
			c-1.842-1.843-1.842-4.843-0.001-6.688c1.844-1.843,4.844-1.843,6.689-0.001l11.759,11.764c0.391,0.391,0.391,1.024,0,1.414
			C25.813,48.521,25.558,48.619,25.302,48.619z"/>
		<path fill="#FFFFFF" d="M27.924,65.444H10.356c-0.553,0-1-0.448-1-1v-6.155c0-0.552,0.447-1,1-1h17.567c0.553,0,1,0.448,1,1v6.155
			C28.924,64.996,28.477,65.444,27.924,65.444z M11.356,63.444h15.567v-4.155H11.356V63.444z"/>
	</g>
	<path fill="#FFFFFF" d="M37.659,28.236H24.753c-0.553,0-1-0.448-1-1V20.18h-6.551c-0.381,0-0.729-0.216-0.897-0.558
		c-0.168-0.342-0.127-0.75,0.104-1.052L30.41,0.369c0.379-0.492,1.207-0.492,1.586,0L46.001,18.57
		c0.231,0.302,0.272,0.71,0.104,1.052c-0.169,0.342-0.517,0.558-0.897,0.558h-6.549v7.056
		C38.659,27.788,38.212,28.236,37.659,28.236z M25.753,26.236h10.906V19.18c0-0.552,0.447-1,1-1h5.518L31.203,2.619L19.233,18.18
		h5.52c0.553,0,1,0.448,1,1V26.236z"/>
	<path fill="#FFFFFF" d="M37.659,39.025H24.753c-0.553,0-1-0.448-1-1V32.34c0-0.552,0.447-1,1-1h12.906c0.553,0,1,0.448,1,1v5.685
		C38.659,38.577,38.212,39.025,37.659,39.025z M25.753,37.025h10.906V33.34H25.753V37.025z"/>
</g>
</svg>
