<?xml version="1.0" encoding="utf-8"?>
<!-- Generator: Adobe Illustrator 16.0.0, SVG Export Plug-In . SVG Version: 6.00 Build 0)  -->
<!DOCTYPE svg PUBLIC "-//W3C//DTD SVG 1.1//EN" "http://www.w3.org/Graphics/SVG/1.1/DTD/svg11.dtd">
<svg version="1.1" id="레이어_1" xmlns="http://www.w3.org/2000/svg" xmlns:xlink="http://www.w3.org/1999/xlink" x="0px"
	 y="0px" width="65.878px" height="44.025px" viewBox="0 0 65.878 44.025" enable-background="new 0 0 65.878 44.025"
	 xml:space="preserve">
<path fill="#FFFFFF" d="M65.878,0H0v1.467v42.559h65.878V1.467V0z M62.125,2L36.22,23.674c-0.901-0.731-2.033-1.188-3.281-1.188
	s-2.38,0.457-3.281,1.188L3.753,2H62.125z M32.939,24.485c1.785,0,3.237,1.452,3.237,3.237s-1.452,3.237-3.237,3.237
	s-3.237-1.452-3.237-3.237S31.154,24.485,32.939,24.485z M20.458,18.583L2,34.47V3.14L20.458,18.583z M2,42.025v-4.917
	l20.012-17.225l6.362,5.323c-0.416,0.75-0.673,1.6-0.673,2.516c0,2.888,2.35,5.237,5.237,5.237s5.237-2.35,5.237-5.237
	c0-0.916-0.257-1.766-0.672-2.516l6.362-5.323l20.012,17.225v4.917H2z M63.878,34.47L45.42,18.583L63.878,3.141V34.47z"/>
</svg>
