<?xml version="1.0" encoding="utf-8"?>
<!-- Generator: Adobe Illustrator 16.0.0, SVG Export Plug-In . SVG Version: 6.00 Build 0)  -->
<!DOCTYPE svg PUBLIC "-//W3C//DTD SVG 1.1//EN" "http://www.w3.org/Graphics/SVG/1.1/DTD/svg11.dtd">
<svg version="1.1" id="레이어_1" xmlns="http://www.w3.org/2000/svg" xmlns:xlink="http://www.w3.org/1999/xlink" x="0px"
	 y="0px" width="63.752px" height="63.751px" viewBox="0 0 63.752 63.751" enable-background="new 0 0 63.752 63.751"
	 xml:space="preserve">
<g>
	<path fill="#FFFFFF" d="M63.752,31.876c0-3.563-4.001-6.713-10.452-8.875c3.033-6.09,3.635-11.146,1.116-13.665
		c-2.52-2.52-7.576-1.918-13.666,1.115C38.589,4,35.439,0,31.876,0c-3.559,0-6.706,3.99-8.866,10.428
		c-1.827-0.915-3.572-1.615-5.198-2.077c-0.199-1.648-1.591-2.936-3.292-2.936c-1.631,0-2.986,1.181-3.271,2.73
		c-0.742,0.272-1.388,0.667-1.912,1.19c-2.38,2.379-2.112,6.988,0.754,12.979c0.108,0.227,0.24,0.46,0.354,0.688
		C3.998,25.165,0,28.313,0,31.876s3.998,6.711,10.445,8.872c-0.115,0.229-0.246,0.462-0.354,0.688
		c-2.866,5.99-3.134,10.6-0.754,12.979c1.067,1.067,2.589,1.575,4.453,1.575c2.533,0,5.702-0.952,9.209-2.698
		c2.162,6.455,5.312,10.459,8.876,10.459s6.715-4.004,8.877-10.458c3.507,1.745,6.677,2.697,9.21,2.697
		c1.862,0,3.386-0.508,4.453-1.575c2.515-2.514,1.921-7.554-1.096-13.627c0.486-0.165,0.955-0.338,1.414-0.516
		c0.611,0.689,1.492,1.133,2.483,1.133c1.837,0,3.332-1.495,3.332-3.332c0-0.273-0.042-0.535-0.105-0.79
		C62.63,35.638,63.752,33.822,63.752,31.876z M49.876,9.709c1.364,0,2.431,0.346,3.126,1.041c1.806,1.806,1.229,6.12-1.607,11.664
		c-2.506-0.715-5.312-1.293-8.352-1.705c-0.412-3.042-0.991-5.851-1.707-8.358C44.748,10.604,47.696,9.709,49.876,9.709z
		 M41.768,31.876c0,1.387-0.034,2.733-0.093,4.046c-0.893,0.979-1.816,1.96-2.804,2.948c-0.974,0.974-1.963,1.901-2.956,2.806
		c-1.321,0.058-2.667,0.091-4.038,0.091c-1.387,0-2.734-0.034-4.048-0.094c-0.977-0.893-1.959-1.815-2.946-2.803
		c-0.973-0.973-1.899-1.961-2.804-2.953c-0.059-1.312-0.093-2.656-0.093-4.041s0.034-2.73,0.093-4.042
		c0.904-0.992,1.831-1.979,2.804-2.953c0.986-0.986,1.968-1.911,2.943-2.803c1.314-0.06,2.663-0.094,4.051-0.094
		c1.39,0,2.739,0.034,4.055,0.094c0.989,0.899,1.972,1.835,2.939,2.803c0.988,0.988,1.911,1.97,2.804,2.948
		C41.733,29.142,41.768,30.489,41.768,31.876z M40.284,23.467c-0.404-0.403-0.81-0.798-1.217-1.189
		c0.745,0.062,1.481,0.13,2.197,0.21c0.08,0.715,0.147,1.448,0.209,2.192C41.084,24.274,40.688,23.87,40.284,23.467z M36.74,20.116
		c-1.08-0.968-2.164-1.891-3.247-2.765c2.118-1.596,4.158-2.946,6.078-4.045c0.58,2.134,1.067,4.532,1.436,7.157
		C39.623,20.314,38.201,20.196,36.74,20.116z M33.549,20c-0.554-0.011-1.111-0.016-1.673-0.016c-0.569,0-1.135,0.006-1.697,0.017
		c0.565-0.479,1.125-0.938,1.683-1.383C32.424,19.064,32.986,19.526,33.549,20z M27.005,20.117c-1.458,0.08-2.877,0.197-4.259,0.347
		c0.367-2.614,0.852-5.005,1.428-7.131c1.96,1.124,4.003,2.481,6.07,4.032C29.168,18.232,28.087,19.148,27.005,20.117z
		 M24.679,22.278c-0.404,0.39-0.809,0.785-1.211,1.188c-0.407,0.407-0.794,0.821-1.19,1.232c0.063-0.751,0.13-1.491,0.211-2.212
		C23.202,22.407,23.936,22.34,24.679,22.278z M20.117,27.024c-0.957,1.069-1.888,2.144-2.757,3.222
		c-1.545-2.058-2.888-4.096-4.019-6.075c2.125-0.575,4.513-1.06,7.125-1.426C20.315,24.133,20.197,25.56,20.117,27.024z
		 M20.001,30.205c-0.011,0.554-0.016,1.11-0.016,1.671s0.005,1.117,0.016,1.67c-0.47-0.557-0.932-1.113-1.376-1.67
		C19.069,31.318,19.531,30.762,20.001,30.205z M20.117,36.726c0.081,1.466,0.199,2.893,0.348,4.28c-2.611-0.366-5-0.851-7.125-1.426
		c1.131-1.979,2.474-4.018,4.019-6.075C18.229,34.583,19.16,35.657,20.117,36.726z M22.277,39.052
		c0.396,0.411,0.783,0.825,1.19,1.232c0.407,0.406,0.815,0.797,1.224,1.189c-0.747-0.062-1.485-0.13-2.203-0.21
		C22.408,40.543,22.339,39.803,22.277,39.052z M27.008,43.634c1.083,0.971,2.166,1.885,3.244,2.753
		c-2.06,1.547-4.099,2.893-6.081,4.024c-0.576-2.125-1.059-4.513-1.426-7.124C24.128,43.437,25.549,43.554,27.008,43.634z
		 M30.189,43.751c0.558,0.01,1.12,0.016,1.687,0.016c0.56,0,1.116-0.006,1.669-0.016c-0.562,0.475-1.123,0.94-1.686,1.388
		C31.308,44.698,30.749,44.224,30.189,43.751z M36.738,43.64c1.458-0.076,2.881-0.188,4.266-0.332
		c-0.368,2.613-0.854,5.003-1.431,7.129c-1.921-1.1-3.96-2.445-6.082-4.043C34.57,45.524,35.654,44.61,36.738,43.64z M39.053,41.481
		c0.411-0.396,0.822-0.788,1.231-1.197c0.403-0.403,0.8-0.808,1.19-1.213c-0.062,0.746-0.13,1.483-0.21,2.2
		C40.539,41.351,39.801,41.421,39.053,41.481z M43.635,36.745c0.972-1.085,1.891-2.17,2.761-3.25
		c1.599,2.122,2.945,4.161,4.044,6.084c-2.176,0.6-4.576,1.085-7.153,1.442C43.437,39.635,43.555,38.21,43.635,36.745z
		 M43.752,33.562c0.01-0.559,0.016-1.12,0.016-1.686c0-0.566-0.005-1.128-0.016-1.687c0.477,0.564,0.956,1.13,1.401,1.687
		C44.708,32.432,44.229,32.997,43.752,33.562z M43.635,27.005c-0.08-1.458-0.198-2.878-0.347-4.26
		c2.621,0.368,5.018,0.854,7.148,1.434c-1.099,1.92-2.443,3.957-4.041,6.077C45.526,29.176,44.607,28.091,43.635,27.005z M31.876,2
		c2.557,0,5.209,3.441,7.123,9.377c-2.28,1.268-4.677,2.845-7.121,4.705c-2.425-1.852-4.82-3.443-7.117-4.728
		C26.674,5.433,29.323,2,31.876,2z M14.52,7.415c0.734,0,1.332,0.598,1.332,1.332s-0.598,1.332-1.332,1.332
		s-1.332-0.598-1.332-1.332S13.785,7.415,14.52,7.415z M11.895,21.451c-2.437-5.092-2.853-8.992-1.144-10.701
		c0.22-0.22,0.492-0.395,0.787-0.545c0.543,1.104,1.67,1.874,2.982,1.874c1.264,0,2.353-0.716,2.917-1.756
		c1.538,0.453,3.211,1.147,4.972,2.053c-0.711,2.501-1.288,5.301-1.699,8.333c-3.028,0.41-5.825,0.985-8.324,1.696
		C12.224,22.088,12.044,21.765,11.895,21.451z M2,31.876c0-2.556,3.438-5.206,9.367-7.12c1.294,2.313,2.891,4.71,4.729,7.12
		c-1.837,2.409-3.435,4.806-4.729,7.119C5.437,37.081,2,34.431,2,31.876z M21.452,51.857c-5.093,2.436-8.991,2.853-10.701,1.144
		c-1.709-1.709-1.293-5.609,1.144-10.701c0.15-0.313,0.329-0.637,0.492-0.954c2.499,0.711,5.295,1.286,8.324,1.696
		c0.41,3.028,0.985,5.825,1.696,8.323C22.088,51.528,21.766,51.707,21.452,51.857z M31.876,61.751c-2.557,0-5.21-3.443-7.124-9.383
		c2.281-1.268,4.678-2.848,7.124-4.71c2.446,1.862,4.843,3.442,7.125,4.711C37.087,58.308,34.434,61.751,31.876,61.751z
		 M53.002,53.001c-1.808,1.805-6.121,1.229-11.664-1.607c0.713-2.498,1.29-5.295,1.701-8.324c3.038-0.399,5.854-0.967,8.377-1.689
		C54.234,46.903,54.803,51.2,53.002,53.001z M52.374,38.997c-1.268-2.28-2.845-4.678-4.706-7.121
		c1.861-2.445,3.438-4.843,4.707-7.123c5.936,1.914,9.377,4.566,9.377,7.123c0,1.494-1.181,2.785-2.353,3.7
		c-0.586-0.513-1.345-0.835-2.183-0.835c-1.837,0-3.332,1.495-3.332,3.332c0,0.127,0.023,0.247,0.037,0.369
		C53.422,38.635,52.908,38.82,52.374,38.997z M57.217,39.405c-0.734,0-1.332-0.598-1.332-1.332s0.598-1.332,1.332-1.332
		s1.332,0.598,1.332,1.332S57.951,39.405,57.217,39.405z"/>
	<path fill="#FFFFFF" d="M31.876,27.428c-2.452,0-4.447,1.995-4.447,4.448c0,2.452,1.995,4.447,4.447,4.447s4.447-1.995,4.447-4.447
		C36.323,29.423,34.328,27.428,31.876,27.428z M31.876,34.323c-1.35,0-2.447-1.098-2.447-2.447s1.098-2.448,2.447-2.448
		s2.447,1.099,2.447,2.448S33.226,34.323,31.876,34.323z"/>
</g>
</svg>
