<?xml version="1.0" encoding="utf-8"?>
<!-- Generator: Adobe Illustrator 16.0.0, SVG Export Plug-In . SVG Version: 6.00 Build 0)  -->
<!DOCTYPE svg PUBLIC "-//W3C//DTD SVG 1.1//EN" "http://www.w3.org/Graphics/SVG/1.1/DTD/svg11.dtd">
<svg version="1.1" id="Isolation_Mode" xmlns="http://www.w3.org/2000/svg" xmlns:xlink="http://www.w3.org/1999/xlink" x="0px"
	 y="0px" width="181.454px" height="131.851px" viewBox="0 0 181.454 131.851" enable-background="new 0 0 181.454 131.851"
	 xml:space="preserve">
<g>
	<g>
		<g>
			<path fill="#fff" d="M3.086,129.703c-1.195,0-2.103-0.268-2.877-1.092l0.996-1.044c0.498,0.522,1.173,0.696,1.902,0.696
				c0.907,0,1.395-0.36,1.395-1.021c0-0.29-0.078-0.534-0.244-0.697c-0.154-0.151-0.332-0.231-0.696-0.29l-0.952-0.14
				c-0.675-0.104-1.172-0.325-1.526-0.685c-0.376-0.395-0.564-0.929-0.564-1.626c0-1.475,1.04-2.508,2.744-2.508
				c1.084,0,1.869,0.278,2.544,0.964l-0.974,1.01c-0.497-0.499-1.095-0.568-1.615-0.568c-0.818,0-1.217,0.476-1.217,1.045
				c0,0.209,0.066,0.43,0.232,0.592c0.155,0.151,0.409,0.279,0.73,0.325l0.93,0.139c0.719,0.105,1.172,0.314,1.504,0.639
				c0.421,0.418,0.608,1.021,0.608,1.753C6.006,128.797,4.733,129.703,3.086,129.703z"/>
			<path fill="#fff" d="M14.266,129.633v-3.657c0-0.825-0.498-1.104-0.951-1.104c-0.443,0-0.963,0.278-0.963,1.068v3.692h-1.438
				v-3.657c0-0.825-0.497-1.104-0.951-1.104c-0.453,0-0.962,0.278-0.962,1.104v3.657H7.562v-6.05h1.405v0.558
				c0.376-0.406,0.907-0.627,1.438-0.627c0.642,0,1.162,0.244,1.527,0.767c0.486-0.534,1.006-0.767,1.726-0.767
				c0.575,0,1.095,0.197,1.416,0.534c0.465,0.488,0.63,1.057,0.63,1.719v3.866H14.266z"/>
			<path fill="#fff" d="M20.423,129.633v-0.522c-0.388,0.406-0.753,0.581-1.416,0.581c-0.653,0-1.129-0.175-1.472-0.534
				c-0.31-0.337-0.476-0.824-0.476-1.358c0-0.964,0.631-1.754,1.969-1.754h1.361v-0.302c0-0.662-0.311-0.952-1.073-0.952
				c-0.554,0-0.808,0.14-1.106,0.499l-0.918-0.94c0.563-0.65,1.117-0.836,2.079-0.836c1.615,0,2.456,0.72,2.456,2.137v3.982H20.423z
				 M20.39,127.078h-1.14c-0.521,0-0.808,0.256-0.808,0.686c0,0.417,0.266,0.696,0.829,0.696c0.398,0,0.653-0.034,0.907-0.29
				c0.155-0.151,0.211-0.395,0.211-0.767V127.078z"/>
			<path fill="#fff" d="M26.725,125.232c-0.222-0.232-0.409-0.36-0.764-0.36c-0.442,0-0.929,0.349-0.929,1.115v3.646h-1.438
				v-6.05h1.405v0.581c0.276-0.349,0.829-0.65,1.449-0.65c0.563,0,0.962,0.15,1.36,0.569L26.725,125.232z"/>
			<path fill="#fff" d="M30.648,129.633c-1.172,0-1.67-0.871-1.67-1.73v-2.996H28.37v-1.149h0.608v-1.789h1.438v1.789h1.018
				v1.149h-1.018v2.902c0,0.349,0.154,0.546,0.497,0.546h0.521v1.277H30.648z"/>
			<path fill="#fff" d="M38.024,129.703c-1.195,0-2.103-0.268-2.877-1.092l0.996-1.044c0.498,0.522,1.173,0.696,1.902,0.696
				c0.907,0,1.395-0.36,1.395-1.021c0-0.29-0.078-0.534-0.244-0.697c-0.154-0.151-0.332-0.231-0.696-0.29l-0.952-0.14
				c-0.675-0.104-1.172-0.325-1.526-0.685c-0.376-0.395-0.564-0.929-0.564-1.626c0-1.475,1.04-2.508,2.744-2.508
				c1.084,0,1.869,0.278,2.544,0.964l-0.974,1.01c-0.497-0.499-1.095-0.568-1.615-0.568c-0.818,0-1.217,0.476-1.217,1.045
				c0,0.209,0.066,0.43,0.232,0.592c0.155,0.151,0.409,0.279,0.73,0.325l0.929,0.139c0.72,0.105,1.173,0.314,1.505,0.639
				c0.421,0.418,0.608,1.021,0.608,1.753C40.944,128.797,39.672,129.703,38.024,129.703z"/>
			<path fill="#fff" d="M44.303,129.633c-1.172,0-1.67-0.871-1.67-1.73v-2.996h-0.608v-1.149h0.608v-1.789h1.438v1.789h1.018
				v1.149h-1.018v2.902c0,0.349,0.154,0.546,0.497,0.546h0.521v1.277H44.303z"/>
			<path fill="#fff" d="M49.743,125.232c-0.222-0.232-0.409-0.36-0.764-0.36c-0.442,0-0.929,0.349-0.929,1.115v3.646h-1.438
				v-6.05h1.405v0.581c0.276-0.349,0.829-0.65,1.449-0.65c0.563,0,0.962,0.15,1.36,0.569L49.743,125.232z"/>
			<path fill="#fff" d="M55.183,129.633v-0.557c-0.376,0.417-0.907,0.627-1.438,0.627c-0.575,0-1.04-0.198-1.361-0.535
				c-0.464-0.488-0.586-1.057-0.586-1.718v-3.867h1.438v3.658c0,0.824,0.497,1.103,0.951,1.103c0.453,0,0.962-0.278,0.962-1.103
				v-3.658h1.438v6.05H55.183z"/>
			<path fill="#fff" d="M60.71,129.703c-1.15,0-2.578-0.651-2.578-3.101s1.428-3.088,2.578-3.088
				c0.797,0,1.394,0.255,1.902,0.813l-0.974,1.022c-0.298-0.337-0.553-0.477-0.929-0.477c-0.343,0-0.608,0.128-0.818,0.395
				c-0.222,0.291-0.321,0.697-0.321,1.335c0,0.639,0.1,1.057,0.321,1.347c0.21,0.268,0.476,0.395,0.818,0.395
				c0.376,0,0.631-0.139,0.929-0.476l0.974,1.01C62.104,129.436,61.507,129.703,60.71,129.703z"/>
			<path fill="#fff" d="M65.751,129.633c-1.172,0-1.67-0.871-1.67-1.73v-2.996h-0.608v-1.149h0.608v-1.789h1.438v1.789h1.018
				v1.149H65.52v2.902c0,0.349,0.154,0.546,0.497,0.546h0.521v1.277H65.751z"/>
			<path fill="#fff" d="M71.379,129.633v-0.557c-0.376,0.417-0.907,0.627-1.438,0.627c-0.575,0-1.04-0.198-1.361-0.535
				c-0.464-0.488-0.586-1.057-0.586-1.718v-3.867h1.438v3.658c0,0.824,0.497,1.103,0.951,1.103c0.453,0,0.962-0.278,0.962-1.103
				v-3.658h1.438v6.05H71.379z"/>
			<path fill="#fff" d="M77.748,125.232c-0.222-0.232-0.409-0.36-0.764-0.36c-0.442,0-0.929,0.349-0.929,1.115v3.646h-1.438
				v-6.05h1.405v0.581c0.276-0.349,0.829-0.65,1.449-0.65c0.563,0,0.962,0.15,1.36,0.569L77.748,125.232z"/>
			<path fill="#fff" d="M80.653,127.078c0,0.778,0.454,1.348,1.262,1.348c0.631,0,0.94-0.187,1.306-0.57l0.873,0.895
				c-0.586,0.615-1.15,0.952-2.19,0.952c-1.36,0-2.666-0.651-2.666-3.101c0-1.974,1.019-3.088,2.512-3.088
				c1.604,0,2.511,1.23,2.511,2.891v0.673H80.653z M82.711,125.395c-0.154-0.359-0.476-0.627-0.962-0.627
				c-0.487,0-0.808,0.268-0.963,0.627c-0.088,0.221-0.121,0.383-0.133,0.65h2.19C82.833,125.778,82.8,125.615,82.711,125.395z"/>
			<path fill="#fff" d="M87.697,129.703c-0.907,0-1.726-0.104-2.456-0.871l0.94-0.987c0.476,0.499,1.096,0.569,1.538,0.569
				c0.497,0,1.018-0.175,1.018-0.627c0-0.303-0.155-0.512-0.608-0.558l-0.907-0.093c-1.04-0.104-1.682-0.581-1.682-1.695
				c0-1.254,1.051-1.928,2.224-1.928c0.896,0,1.648,0.162,2.201,0.708l-0.885,0.94c-0.332-0.313-0.841-0.406-1.339-0.406
				c-0.575,0-0.818,0.279-0.818,0.581c0,0.221,0.089,0.476,0.598,0.522l0.907,0.092c1.14,0.117,1.715,0.755,1.715,1.777
				C90.143,129.064,89.058,129.703,87.697,129.703z"/>
			<path fill="#fff" d="M97.306,129.633v-0.522c-0.388,0.406-0.753,0.581-1.416,0.581c-0.653,0-1.129-0.175-1.472-0.534
				c-0.31-0.337-0.476-0.824-0.476-1.358c0-0.964,0.631-1.754,1.969-1.754h1.361v-0.302c0-0.662-0.311-0.952-1.073-0.952
				c-0.554,0-0.808,0.14-1.106,0.499l-0.918-0.94c0.563-0.65,1.117-0.836,2.079-0.836c1.615,0,2.456,0.72,2.456,2.137v3.982H97.306z
				 M97.272,127.078h-1.14c-0.521,0-0.808,0.256-0.808,0.686c0,0.417,0.266,0.696,0.829,0.696c0.398,0,0.653-0.034,0.907-0.29
				c0.155-0.151,0.211-0.395,0.211-0.767V127.078z"/>
			<path fill="#fff" d="M103.829,129.633v-3.657c0-0.825-0.497-1.104-0.951-1.104c-0.453,0-0.962,0.278-0.962,1.104v3.657h-1.438
				v-6.05h1.405v0.558c0.376-0.418,0.907-0.627,1.438-0.627c0.575,0,1.04,0.197,1.361,0.534c0.464,0.488,0.586,1.057,0.586,1.719
				v3.866H103.829z"/>
			<path fill="#fff" d="M110.219,129.633v-0.569c-0.397,0.464-0.818,0.639-1.427,0.639c-0.564,0-1.095-0.209-1.416-0.546
				c-0.575-0.604-0.586-1.649-0.586-2.555s0.011-1.939,0.586-2.542c0.321-0.337,0.841-0.546,1.405-0.546
				c0.586,0,1.028,0.162,1.404,0.604v-2.752h1.438v8.268H110.219z M109.201,124.872c-0.862,0-0.974,0.743-0.974,1.73
				c0,0.987,0.111,1.742,0.974,1.742c0.863,0,0.984-0.754,0.984-1.742C110.186,125.615,110.064,124.872,109.201,124.872z"/>
			<path fill="#fff" d="M118.522,129.703c-1.195,0-2.103-0.268-2.877-1.092l0.996-1.044c0.498,0.522,1.173,0.696,1.902,0.696
				c0.907,0,1.395-0.36,1.395-1.021c0-0.29-0.078-0.534-0.244-0.697c-0.154-0.151-0.332-0.231-0.696-0.29l-0.952-0.14
				c-0.675-0.104-1.172-0.325-1.526-0.685c-0.376-0.395-0.564-0.929-0.564-1.626c0-1.475,1.04-2.508,2.744-2.508
				c1.084,0,1.869,0.278,2.544,0.964l-0.974,1.01c-0.497-0.499-1.095-0.568-1.615-0.568c-0.818,0-1.217,0.476-1.217,1.045
				c0,0.209,0.066,0.43,0.232,0.592c0.155,0.151,0.409,0.279,0.73,0.325l0.929,0.139c0.72,0.105,1.173,0.314,1.505,0.639
				c0.421,0.418,0.608,1.021,0.608,1.753C121.442,128.797,120.17,129.703,118.522,129.703z"/>
			<path fill="#fff" d="M125.146,130.608c-0.122,0.336-0.255,0.592-0.432,0.778c-0.332,0.348-0.764,0.464-1.239,0.464h-0.564
				v-1.358h0.332c0.409,0,0.575-0.104,0.72-0.546l0.243-0.743l-1.97-5.62h1.516l1.195,3.739l1.15-3.739h1.516L125.146,130.608z"/>
			<path fill="#fff" d="M130.573,129.703c-0.907,0-1.726-0.104-2.456-0.871l0.94-0.987c0.476,0.499,1.096,0.569,1.538,0.569
				c0.497,0,1.018-0.175,1.018-0.627c0-0.303-0.155-0.512-0.608-0.558l-0.907-0.093c-1.04-0.104-1.682-0.581-1.682-1.695
				c0-1.254,1.051-1.928,2.224-1.928c0.896,0,1.648,0.162,2.201,0.708l-0.885,0.94c-0.332-0.313-0.841-0.406-1.339-0.406
				c-0.575,0-0.818,0.279-0.818,0.581c0,0.221,0.089,0.476,0.598,0.522l0.907,0.092c1.14,0.117,1.715,0.755,1.715,1.777
				C133.019,129.064,131.934,129.703,130.573,129.703z"/>
			<path fill="#fff" d="M136.134,129.633c-1.172,0-1.67-0.871-1.67-1.73v-2.996h-0.608v-1.149h0.608v-1.789h1.438v1.789h1.018
				v1.149h-1.018v2.902c0,0.349,0.154,0.546,0.497,0.546h0.521v1.277H136.134z"/>
			<path fill="#fff" d="M139.539,127.078c0,0.778,0.454,1.348,1.262,1.348c0.631,0,0.94-0.187,1.306-0.57l0.873,0.895
				c-0.586,0.615-1.15,0.952-2.189,0.952c-1.361,0-2.667-0.651-2.667-3.101c0-1.974,1.019-3.088,2.512-3.088
				c1.604,0,2.511,1.23,2.511,2.891v0.673H139.539z M141.597,125.395c-0.154-0.359-0.476-0.627-0.962-0.627
				c-0.487,0-0.808,0.268-0.963,0.627c-0.088,0.221-0.121,0.383-0.133,0.65h2.19C141.719,125.778,141.686,125.615,141.597,125.395z"
				/>
			<path fill="#fff" d="M151.395,129.633v-3.657c0-0.825-0.498-1.104-0.951-1.104c-0.443,0-0.963,0.278-0.963,1.068v3.692h-1.438
				v-3.657c0-0.825-0.497-1.104-0.951-1.104c-0.453,0-0.962,0.278-0.962,1.104v3.657h-1.438v-6.05h1.405v0.558
				c0.376-0.406,0.907-0.627,1.438-0.627c0.642,0,1.162,0.244,1.527,0.767c0.486-0.534,1.006-0.767,1.726-0.767
				c0.575,0,1.095,0.197,1.416,0.534c0.465,0.488,0.63,1.057,0.63,1.719v3.866H151.395z"/>
			<path fill="#fff" d="M156.489,129.703c-0.907,0-1.726-0.104-2.456-0.871l0.94-0.987c0.476,0.499,1.096,0.569,1.538,0.569
				c0.497,0,1.018-0.175,1.018-0.627c0-0.303-0.155-0.512-0.608-0.558l-0.907-0.093c-1.04-0.104-1.682-0.581-1.682-1.695
				c0-1.254,1.051-1.928,2.224-1.928c0.896,0,1.648,0.162,2.201,0.708l-0.885,0.94c-0.332-0.313-0.841-0.406-1.339-0.406
				c-0.575,0-0.818,0.279-0.818,0.581c0,0.221,0.089,0.476,0.598,0.522l0.907,0.092c1.14,0.117,1.715,0.755,1.715,1.777
				C158.935,129.064,157.85,129.703,156.489,129.703z"/>
			<path fill="#fff" d="M163.255,129.633v-8.268h1.538v6.828h3.573v1.439H163.255z"/>
			<path fill="#fff" d="M172.677,129.633v-0.522c-0.388,0.406-0.753,0.581-1.416,0.581c-0.653,0-1.129-0.175-1.472-0.534
				c-0.31-0.337-0.476-0.824-0.476-1.358c0-0.964,0.631-1.754,1.969-1.754h1.361v-0.302c0-0.662-0.311-0.952-1.073-0.952
				c-0.554,0-0.808,0.14-1.106,0.499l-0.918-0.94c0.563-0.65,1.117-0.836,2.079-0.836c1.615,0,2.456,0.72,2.456,2.137v3.982H172.677
				z M172.644,127.078h-1.14c-0.521,0-0.808,0.256-0.808,0.686c0,0.417,0.266,0.696,0.829,0.696c0.398,0,0.653-0.034,0.907-0.29
				c0.155-0.151,0.211-0.395,0.211-0.767V127.078z"/>
			<path fill="#fff" d="M180.086,129.157c-0.321,0.336-0.841,0.546-1.405,0.546c-0.608,0-1.04-0.175-1.438-0.639v0.569h-1.394
				v-8.268h1.438v2.752c0.376-0.441,0.808-0.604,1.394-0.604c0.564,0,1.084,0.209,1.405,0.546c0.575,0.604,0.586,1.637,0.586,2.542
				S180.661,128.553,180.086,129.157z M178.26,124.872c-0.862,0-0.973,0.743-0.973,1.73c0,0.987,0.11,1.742,0.973,1.742
				c0.863,0,0.974-0.754,0.974-1.742C179.233,125.615,179.123,124.872,178.26,124.872z"/>
		</g>
	</g>
	<path fill="#fff" d="M120.59,33.443c-0.517-0.301-1.155-0.307-1.676-0.016L92.435,48.331V35.872l28.129-15.834
		c0.019-0.011,0.033-0.025,0.052-0.037c0.051-0.031,0.099-0.066,0.146-0.103c0.043-0.033,0.085-0.065,0.123-0.102
		c0.038-0.036,0.073-0.074,0.107-0.114c0.038-0.043,0.075-0.085,0.109-0.131c0.029-0.042,0.055-0.085,0.08-0.129
		c0.029-0.048,0.058-0.097,0.081-0.148c0.021-0.047,0.038-0.097,0.056-0.146c0.02-0.053,0.037-0.106,0.051-0.161
		c0.012-0.049,0.02-0.099,0.026-0.15c0.009-0.061,0.017-0.121,0.019-0.182c0.001-0.021,0.006-0.041,0.006-0.063
		c0-0.02-0.008-0.04-0.008-0.06c-0.004-0.109-0.019-0.218-0.045-0.327c-0.047-0.255-0.122-0.502-0.258-0.724l-0.001,0.001
		c-0.064-0.104-0.145-0.206-0.231-0.298c-0.093-0.114-0.261-0.294-0.513-0.442c-0.028-0.017-0.059-0.034-0.088-0.049L91.372,0.407
		c-0.029-0.018-0.059-0.034-0.09-0.05c-0.163-0.084-0.312-0.13-0.433-0.158c-0.171-0.055-0.539-0.108-0.914-0.044
		c-0.013,0.002-0.025,0.005-0.037,0.007c-0.042,0.008-0.083,0.01-0.124,0.022C89.597,0.225,89.38,0.3,89.236,0.38
		c-0.039,0.022-0.085,0.05-0.122,0.076c-0.078,0.052-0.146,0.112-0.211,0.174L75.378,8.985c-0.026,0.017-0.047,0.038-0.072,0.056
		c-0.045,0.031-0.088,0.064-0.13,0.1C75.132,9.179,75.09,9.218,75.05,9.26c-0.035,0.037-0.068,0.075-0.101,0.115
		c-0.038,0.049-0.073,0.098-0.106,0.15c-0.015,0.023-0.033,0.042-0.047,0.066c-0.012,0.021-0.018,0.044-0.028,0.065
		c-0.026,0.052-0.05,0.105-0.07,0.16c-0.02,0.051-0.038,0.102-0.052,0.154c-0.015,0.051-0.024,0.102-0.033,0.153
		c-0.01,0.056-0.02,0.111-0.023,0.167c-0.004,0.053-0.003,0.105-0.002,0.158c0.001,0.054,0.003,0.107,0.009,0.162
		c0.007,0.054,0.018,0.107,0.029,0.161c0.011,0.053,0.023,0.105,0.04,0.157c0.017,0.05,0.036,0.098,0.057,0.147
		c0.023,0.055,0.05,0.109,0.079,0.161c0.011,0.021,0.018,0.042,0.03,0.063c0.011,0.018,0.026,0.03,0.038,0.047
		c0.058,0.086,0.124,0.167,0.198,0.242c0.021,0.022,0.041,0.047,0.063,0.068c0.093,0.084,0.193,0.161,0.307,0.225l26.383,14.849
		L90.754,32.96l-28.16-15.85c-0.027-0.015-0.056-0.022-0.083-0.036c-0.053-0.026-0.105-0.049-0.16-0.07
		c-0.052-0.019-0.104-0.035-0.156-0.048c-0.053-0.014-0.105-0.026-0.159-0.034c-0.058-0.009-0.115-0.015-0.174-0.018
		c-0.031-0.002-0.061-0.009-0.092-0.009c-0.023,0-0.045,0.006-0.068,0.007c-0.055,0.002-0.109,0.009-0.163,0.016
		c-0.059,0.008-0.115,0.017-0.171,0.031c-0.047,0.012-0.092,0.027-0.138,0.043c-0.058,0.02-0.114,0.039-0.168,0.065
		c-0.045,0.021-0.087,0.045-0.129,0.07c-0.051,0.029-0.1,0.058-0.146,0.091c-0.043,0.031-0.082,0.066-0.122,0.101
		c-0.041,0.037-0.082,0.073-0.12,0.113c-0.036,0.039-0.068,0.08-0.101,0.123c-0.036,0.046-0.07,0.093-0.102,0.143
		c-0.012,0.02-0.026,0.035-0.038,0.055c-0.016,0.027-0.023,0.056-0.036,0.083c-0.026,0.052-0.05,0.104-0.069,0.159
		c-0.021,0.054-0.037,0.107-0.051,0.162c-0.013,0.049-0.023,0.099-0.032,0.149c-0.01,0.063-0.016,0.126-0.019,0.189
		c-0.002,0.027-0.009,0.053-0.009,0.081v16.317c0,0.021,0.006,0.04,0.007,0.06c0.002,0.063,0.009,0.125,0.019,0.187
		c0.007,0.049,0.015,0.098,0.026,0.146c0.013,0.056,0.031,0.109,0.05,0.163c0.018,0.049,0.035,0.099,0.057,0.146
		c0.023,0.051,0.052,0.099,0.08,0.147c0.026,0.044,0.052,0.088,0.082,0.13c0.032,0.046,0.07,0.088,0.107,0.131
		c0.035,0.04,0.069,0.078,0.108,0.114c0.039,0.037,0.081,0.07,0.125,0.103c0.046,0.036,0.092,0.069,0.142,0.1
		c0.019,0.012,0.034,0.027,0.055,0.038L89.072,52.19v12.692L62.73,50.056c-0.3-0.202-0.668-0.303-1.048-0.292
		c-0.747,0.039-1.379,0.567-1.55,1.295c-0.172,0.729,0.16,1.482,0.813,1.85L89.93,69.223c0.021,0.011,0.042,0.015,0.063,0.025
		c0.085,0.043,0.173,0.079,0.266,0.107c0.022,0.007,0.044,0.021,0.067,0.027c0.015,0.004,0.029,0.004,0.045,0.008
		c0.121,0.028,0.248,0.047,0.378,0.048c0.002,0,0.003,0,0.005,0l0,0h0.001l0,0h0.001c0.002,0,0.003,0,0.003,0
		c0.132,0,0.258-0.02,0.38-0.048c0.015-0.004,0.03-0.004,0.045-0.008c0.023-0.006,0.044-0.02,0.067-0.027
		c0.092-0.028,0.181-0.063,0.265-0.107c0.021-0.011,0.043-0.014,0.063-0.025l28.984-16.313c0.633-0.357,0.934-1.078,0.795-1.787
		l0.062-16.224C121.422,34.301,121.105,33.746,120.59,33.443z"/>
	<g>
		<path fill="#fff" d="M174.833,84.672c2.332,0,3.989,0.501,4.975,1.502c0.983,1,1.477,2.517,1.477,4.542v1.757
			c0,2.029-0.668,3.581-2.004,4.652c1.448,1.003,2.174,2.577,2.174,4.726v2.125c0,0.979-0.103,1.856-0.307,2.637
			c-0.203,0.784-0.542,1.448-1.019,1.999c-0.476,0.548-1.098,0.97-1.866,1.264c-0.77,0.293-1.709,0.438-2.817,0.438h-21.974
			c-0.497,0-0.746-0.269-0.746-0.806v-3.259c0-0.538,0.249-0.806,0.746-0.806h20.445c0.883,0,1.521-0.184,1.918-0.551
			c0.396-0.365,0.594-0.938,0.594-1.722v-1.354c0-0.757-0.209-0.93-0.628-1.333c-0.419-0.403-1.193-0.603-2.325-0.603h-19.799
			c-0.522,0-0.78-0.269-0.78-0.806v-3.216c0-0.538,0.258-0.806,0.78-0.806h19.799c1.132,0,1.901-0.189,2.308-0.567
			c0.408-0.378,0.611-0.714,0.611-1.424v-1.28c0-0.781-0.198-1.351-0.594-1.705c-0.396-0.354-1.047-0.532-1.951-0.532h-20.378
			c-0.497,0-0.746-0.266-0.746-0.806v-3.259c0-0.537,0.249-0.806,0.746-0.806H174.833z"/>
		<path fill="#fff" d="M24.852,84.672c0.462,0,0.693,0.28,0.693,0.842v3.737c0,0.559-0.231,0.838-0.693,0.838H7.475
			c-0.798,0-1.348,0.179-1.657,0.539c-0.308,0.356-0.461,0.877-0.461,1.563v0.702c0,0.623,0.153,1.112,0.461,1.472
			c0.31,0.356,0.859,0.535,1.657,0.535h12.984c2.157,0,3.698,0.545,4.623,1.636c0.925,1.091,1.388,2.632,1.388,4.625v2.614
			c0,1.028-0.104,1.947-0.309,2.758c-0.205,0.807-0.546,1.493-1.021,2.055c-0.476,0.56-1.098,0.986-1.868,1.283
			c-0.771,0.297-1.722,0.444-2.851,0.444H0.693c-0.462,0-0.693-0.279-0.693-0.842v-3.736c0-0.56,0.231-0.839,0.693-0.839h18.263
			c0.796,0,1.354-0.171,1.677-0.514c0.319-0.343,0.48-0.919,0.48-1.727v-1.262c0-0.622-0.161-1.104-0.48-1.447
			c-0.322-0.343-0.881-0.514-1.677-0.514H6.01c-2.157,0-3.698-0.538-4.622-1.611C0.463,96.745,0,95.182,0,93.127v-2.056
			c0-0.964,0.103-1.845,0.31-2.639c0.203-0.797,0.545-1.471,1.02-2.034c0.476-0.559,1.098-0.986,1.869-1.283
			c0.771-0.297,1.721-0.444,2.851-0.444H24.852z"/>
		<path fill="#fff" d="M54.952,84.672c0.462,0,0.693,0.28,0.693,0.842v3.737c0,0.559-0.231,0.838-0.693,0.838H37.575
			c-0.797,0-1.348,0.179-1.657,0.539c-0.308,0.356-0.461,0.877-0.461,1.563v0.702c0,0.623,0.153,1.112,0.461,1.472
			c0.31,0.356,0.86,0.535,1.657,0.535H50.56c2.157,0,3.699,0.545,4.623,1.636c0.925,1.091,1.388,2.632,1.388,4.625v2.614
			c0,1.028-0.104,1.947-0.309,2.758c-0.205,0.807-0.546,1.493-1.021,2.055c-0.476,0.56-1.097,0.986-1.868,1.283
			c-0.771,0.297-1.721,0.444-2.85,0.444H30.794c-0.461,0-0.693-0.279-0.693-0.842v-3.736c0-0.56,0.232-0.839,0.693-0.839h18.264
			c0.795,0,1.354-0.171,1.676-0.514c0.32-0.343,0.48-0.919,0.48-1.727v-1.262c0-0.622-0.16-1.104-0.48-1.447
			c-0.322-0.343-0.881-0.514-1.676-0.514H36.11c-2.156,0-3.698-0.538-4.622-1.611c-0.925-1.076-1.388-2.639-1.388-4.694v-2.056
			c0-0.964,0.103-1.845,0.309-2.639c0.205-0.797,0.546-1.471,1.021-2.034c0.476-0.559,1.098-0.986,1.869-1.283
			c0.771-0.297,1.722-0.444,2.851-0.444H54.952z"/>
		<path fill="#fff" d="M85.053,84.672c0.462,0,0.694,0.28,0.694,0.842v3.737c0,0.559-0.232,0.838-0.694,0.838H67.676
			c-0.797,0-1.348,0.179-1.657,0.539c-0.307,0.356-0.461,0.877-0.461,1.563v0.702c0,0.623,0.154,1.112,0.461,1.472
			c0.31,0.356,0.86,0.535,1.657,0.535h12.985c2.156,0,3.698,0.545,4.622,1.636c0.925,1.091,1.389,2.632,1.389,4.625v2.614
			c0,1.028-0.104,1.947-0.31,2.758c-0.205,0.807-0.545,1.493-1.021,2.055c-0.475,0.56-1.097,0.986-1.868,1.283
			c-0.771,0.297-1.721,0.444-2.85,0.444H60.895c-0.461,0-0.693-0.279-0.693-0.842v-3.736c0-0.56,0.232-0.839,0.693-0.839h18.264
			c0.795,0,1.354-0.171,1.676-0.514c0.32-0.343,0.481-0.919,0.481-1.727v-1.262c0-0.622-0.161-1.104-0.481-1.447
			c-0.321-0.343-0.881-0.514-1.676-0.514H66.211c-2.156,0-3.698-0.538-4.622-1.611c-0.925-1.076-1.388-2.639-1.388-4.694v-2.056
			c0-0.964,0.103-1.845,0.31-2.639c0.204-0.797,0.545-1.471,1.02-2.034c0.477-0.559,1.098-0.986,1.869-1.283
			c0.771-0.297,1.722-0.444,2.851-0.444H85.053z"/>
		<path fill="#fff" d="M108.899,110.313h-8.967c-1.748,0-3.205-0.171-4.373-0.514c-1.171-0.342-2.107-0.895-2.813-1.656
			c-0.706-0.766-1.213-1.745-1.521-2.943c-0.312-1.199-0.465-2.639-0.465-4.32V85.745c0-0.717,0.297-1.073,0.888-1.073h3.774
			c0.567,0,0.851,0.356,0.851,1.073v13.499c0,0.996,0.048,1.821,0.153,2.475c0.102,0.653,0.293,1.178,0.576,1.565
			c0.283,0.388,0.683,0.671,1.195,0.839c0.514,0.175,1.192,0.259,2.042,0.259h8.659V110.313z"/>
		<path fill="#fff" d="M144.671,110.313c-0.438,0-0.745-0.217-0.927-0.653l-9.053-19.291c-0.105-0.186-0.244-0.28-0.423-0.28
			h-0.157c-0.179,0-0.318,0.094-0.423,0.28l-9.092,19.291c-0.102,0.216-0.22,0.381-0.346,0.489c-0.13,0.108-0.321,0.165-0.58,0.165
			h-4.275c-0.283,0-0.469-0.115-0.559-0.35c-0.092-0.234-0.07-0.507,0.056-0.818l10.56-22.374c0.359-0.776,0.769-1.321,1.23-1.633
			c0.465-0.314,1.132-0.468,2.006-0.468h3.156c0.85,0,1.503,0.154,1.968,0.468c0.462,0.312,0.874,0.857,1.23,1.633l10.56,22.374
			c0.126,0.311,0.146,0.583,0.056,0.818s-0.276,0.35-0.56,0.35H144.671z"/>
		<path fill="#fff" d="M99.829,104.382h15.135c0.717,0,1.074,0.32,1.074,0.956v4.062c0,0.61-0.357,0.915-1.074,0.915h-13.498"/>
	</g>
	<rect x="152.726" y="86.325" fill="#fff" width="5.324" height="23.59"/>
</g>
</svg>
