<?xml version="1.0" encoding="utf-8"?>
<!-- Generator: Adobe Illustrator 16.0.0, SVG Export Plug-In . SVG Version: 6.00 Build 0)  -->
<!DOCTYPE svg PUBLIC "-//W3C//DTD SVG 1.1//EN" "http://www.w3.org/Graphics/SVG/1.1/DTD/svg11.dtd">
<svg version="1.1" id="Layer_1" xmlns="http://www.w3.org/2000/svg" xmlns:xlink="http://www.w3.org/1999/xlink" x="0px" y="0px"
	 width="369.189px" height="73.121px" viewBox="0 0 369.189 73.121" enable-background="new 0 0 369.189 73.121"
	 xml:space="preserve">
<path fill="#FFFFFF" d="M63.824,35.147c-0.545-0.317-1.218-0.323-1.768-0.017L34.123,50.853V37.71l29.674-16.706
	c0.02-0.011,0.035-0.026,0.055-0.038c0.054-0.033,0.104-0.07,0.153-0.109c0.045-0.034,0.09-0.068,0.131-0.107
	c0.039-0.037,0.076-0.078,0.112-0.12c0.04-0.045,0.08-0.089,0.115-0.138c0.031-0.044,0.058-0.09,0.085-0.137
	c0.03-0.051,0.06-0.102,0.085-0.156c0.023-0.05,0.041-0.101,0.06-0.154c0.02-0.056,0.038-0.112,0.053-0.17
	c0.012-0.051,0.021-0.104,0.028-0.158c0.01-0.064,0.017-0.127,0.02-0.192c0.001-0.022,0.006-0.043,0.006-0.066
	c0-0.021-0.008-0.042-0.008-0.063c-0.004-0.116-0.021-0.23-0.047-0.345c-0.05-0.268-0.13-0.53-0.273-0.764L64.37,18.29
	c-0.066-0.11-0.152-0.218-0.243-0.314c-0.098-0.121-0.275-0.311-0.542-0.467c-0.029-0.019-0.061-0.036-0.092-0.052L33.002,0.297
	c-0.03-0.019-0.062-0.036-0.095-0.053c-0.172-0.089-0.329-0.138-0.456-0.166c-0.181-0.058-0.569-0.115-0.965-0.047
	c-0.013,0.002-0.026,0.005-0.039,0.007c-0.044,0.009-0.087,0.011-0.131,0.024c-0.188,0.042-0.415,0.122-0.567,0.206
	c-0.041,0.024-0.09,0.053-0.129,0.08c-0.082,0.054-0.153,0.118-0.223,0.183L16.13,9.346c-0.027,0.018-0.05,0.04-0.076,0.059
	c-0.048,0.033-0.093,0.067-0.138,0.105c-0.047,0.04-0.091,0.081-0.133,0.125c-0.037,0.039-0.072,0.079-0.105,0.122
	c-0.041,0.052-0.078,0.104-0.112,0.159c-0.016,0.024-0.035,0.044-0.05,0.07c-0.013,0.022-0.019,0.047-0.03,0.069
	c-0.028,0.055-0.052,0.111-0.074,0.168c-0.02,0.054-0.04,0.108-0.055,0.163c-0.015,0.053-0.025,0.107-0.034,0.162
	c-0.011,0.058-0.02,0.117-0.025,0.176c-0.004,0.055-0.003,0.111-0.002,0.166c0.001,0.057,0.003,0.114,0.01,0.171
	s0.019,0.113,0.03,0.17c0.013,0.056,0.025,0.111,0.042,0.165c0.018,0.053,0.038,0.104,0.061,0.155
	c0.024,0.058,0.052,0.115,0.083,0.171c0.012,0.021,0.019,0.044,0.032,0.065c0.012,0.019,0.028,0.032,0.04,0.05
	c0.062,0.091,0.131,0.176,0.21,0.256c0.021,0.023,0.043,0.049,0.066,0.071c0.098,0.089,0.204,0.17,0.323,0.237l27.832,15.665
	L32.35,34.638L2.643,17.918c-0.028-0.016-0.06-0.024-0.088-0.039c-0.056-0.027-0.111-0.052-0.169-0.073
	c-0.056-0.021-0.109-0.037-0.165-0.052c-0.056-0.014-0.11-0.026-0.168-0.036C1.992,17.709,1.931,17.703,1.87,17.7
	c-0.032-0.002-0.063-0.01-0.097-0.01c-0.024,0-0.047,0.006-0.072,0.007c-0.058,0.003-0.115,0.01-0.172,0.018
	c-0.062,0.008-0.121,0.017-0.18,0.032c-0.05,0.012-0.098,0.028-0.146,0.045c-0.061,0.021-0.121,0.042-0.178,0.068
	c-0.047,0.022-0.091,0.048-0.136,0.074c-0.053,0.031-0.105,0.061-0.154,0.097C0.691,18.064,0.65,18.1,0.607,18.137
	c-0.043,0.039-0.087,0.077-0.126,0.12c-0.038,0.04-0.073,0.084-0.107,0.129c-0.038,0.049-0.074,0.098-0.105,0.151
	c-0.014,0.02-0.029,0.036-0.041,0.057c-0.017,0.029-0.024,0.059-0.038,0.088c-0.027,0.055-0.052,0.11-0.073,0.168
	c-0.021,0.056-0.039,0.113-0.054,0.171c-0.014,0.052-0.025,0.104-0.033,0.157c-0.011,0.067-0.018,0.133-0.021,0.2
	C0.007,19.407,0,19.435,0,19.464v17.213c0,0.022,0.005,0.042,0.006,0.063c0.003,0.067,0.011,0.132,0.021,0.198
	c0.008,0.052,0.015,0.104,0.027,0.153c0.015,0.059,0.033,0.115,0.054,0.172c0.018,0.052,0.036,0.104,0.059,0.154
	c0.025,0.054,0.055,0.104,0.085,0.156c0.028,0.047,0.055,0.092,0.086,0.137c0.035,0.047,0.074,0.093,0.114,0.138
	c0.037,0.041,0.073,0.082,0.114,0.12c0.041,0.039,0.086,0.074,0.132,0.109c0.048,0.037,0.097,0.072,0.149,0.104
	c0.02,0.013,0.036,0.029,0.058,0.041l29.672,16.701v13.389L2.787,52.673c-0.316-0.213-0.704-0.32-1.104-0.307
	c-0.789,0.039-1.455,0.598-1.636,1.364c-0.181,0.771,0.169,1.563,0.857,1.952l30.576,17.21c0.021,0.012,0.045,0.017,0.066,0.026
	c0.09,0.045,0.183,0.082,0.279,0.113c0.024,0.008,0.046,0.021,0.071,0.027c0.016,0.003,0.032,0.004,0.048,0.009
	c0.128,0.03,0.261,0.05,0.399,0.05c0.001,0,0.003,0.002,0.004,0.002h0.001h0.001h0.001c0.001,0,0.003-0.002,0.004-0.002
	c0.138,0,0.271-0.02,0.399-0.05c0.016-0.005,0.031-0.006,0.048-0.009c0.024-0.006,0.047-0.021,0.07-0.027
	c0.098-0.031,0.19-0.068,0.28-0.113c0.021-0.012,0.045-0.016,0.066-0.026l30.575-17.209c0.668-0.376,0.986-1.138,0.839-1.886
	l0.065-17.113C64.702,36.052,64.368,35.467,63.824,35.147"/>
<path fill="#FFFFFF" d="M358.414,5c3.794,0,6.492,0.817,8.097,2.446c1.602,1.628,2.403,4.095,2.403,7.393v2.86
	c0,3.302-1.089,5.828-3.262,7.572c2.356,1.634,3.537,4.195,3.537,7.693v3.458c0,1.594-0.166,3.021-0.499,4.292
	c-0.33,1.277-0.882,2.356-1.657,3.254c-0.773,0.892-1.787,1.578-3.038,2.057c-1.252,0.477-2.781,0.715-4.586,0.715h-35.767
	c-0.811,0-1.215-0.439-1.215-1.313v-5.305c0-0.875,0.404-1.313,1.215-1.313h33.279c1.437,0,2.477-0.299,3.12-0.896
	c0.645-0.594,0.969-1.526,0.969-2.804v-2.203c0-1.232-0.341-1.514-1.023-2.17c-0.682-0.655-1.94-0.981-3.784-0.981h-32.228
	c-0.851,0-1.271-0.437-1.271-1.312v-5.236c0-0.874,0.421-1.312,1.271-1.312h32.228c1.844,0,3.097-0.308,3.757-0.923
	c0.664-0.616,0.995-1.163,0.995-2.318V16.57c0-1.271-0.322-2.199-0.968-2.775c-0.644-0.576-1.703-0.866-3.177-0.866h-33.168
	c-0.811,0-1.215-0.432-1.215-1.312V6.312c0-0.875,0.404-1.312,1.215-1.312H358.414z"/>
<path fill="#FFFFFF" d="M114.281,5c0.751,0,1.129,0.456,1.129,1.371v6.083c0,0.91-0.378,1.365-1.129,1.365H85.996
	c-1.298,0-2.193,0.29-2.698,0.876c-0.5,0.58-0.75,1.429-0.75,2.544v1.143c0,1.014,0.25,1.809,0.75,2.396
	c0.505,0.58,1.4,0.87,2.698,0.87h21.136c3.511,0,6.021,0.888,7.524,2.663c1.505,1.774,2.26,4.284,2.26,7.527v4.256
	c0,1.673-0.169,3.169-0.504,4.49c-0.333,1.313-0.887,2.43-1.662,3.345c-0.773,0.911-1.786,1.604-3.041,2.088
	c-1.254,0.483-2.802,0.724-4.639,0.724H74.958c-0.751,0-1.13-0.455-1.13-1.371v-6.082c0-0.912,0.379-1.367,1.13-1.367h29.729
	c1.294,0,2.204-0.278,2.728-0.836c0.521-0.558,0.783-1.497,0.783-2.811v-2.054c0-1.012-0.262-1.798-0.783-2.356
	c-0.523-0.557-1.434-0.836-2.728-0.836H83.612c-3.511,0-6.021-0.876-7.525-2.622c-1.504-1.753-2.259-4.297-2.259-7.641v-3.347
	c0-1.569,0.168-3.003,0.504-4.295c0.333-1.297,0.888-2.394,1.661-3.311c0.774-0.91,1.787-1.605,3.041-2.088
	C80.289,5.239,81.837,5,83.675,5H114.281z"/>
<path fill="#FFFFFF" d="M163.277,5c0.751,0,1.129,0.456,1.129,1.371v6.083c0,0.91-0.378,1.365-1.129,1.365h-28.285
	c-1.298,0-2.194,0.29-2.698,0.876c-0.5,0.58-0.75,1.429-0.75,2.544v1.143c0,1.014,0.25,1.809,0.75,2.396
	c0.504,0.58,1.4,0.87,2.698,0.87h21.136c3.511,0,6.021,0.888,7.524,2.663c1.505,1.774,2.259,4.284,2.259,7.527v4.256
	c0,1.673-0.168,3.169-0.503,4.49c-0.334,1.313-0.888,2.43-1.662,3.345c-0.773,0.911-1.786,1.604-3.041,2.088
	c-1.254,0.483-2.802,0.724-4.639,0.724h-32.112c-0.752,0-1.13-0.455-1.13-1.371v-6.082c0-0.912,0.378-1.367,1.13-1.367h29.728
	c1.295,0,2.205-0.278,2.728-0.836c0.521-0.558,0.783-1.497,0.783-2.811v-2.054c0-1.012-0.262-1.798-0.783-2.356
	c-0.522-0.557-1.433-0.836-2.728-0.836h-21.073c-3.512,0-6.021-0.876-7.525-2.622c-1.505-1.753-2.259-4.297-2.259-7.641v-3.347
	c0-1.569,0.168-3.003,0.504-4.295c0.332-1.297,0.887-2.394,1.661-3.311c0.774-0.91,1.786-1.605,3.041-2.088
	C129.285,5.239,130.833,5,132.67,5H163.277z"/>
<path fill="#FFFFFF" d="M212.273,5c0.752,0,1.129,0.456,1.129,1.371v6.083c0,0.91-0.377,1.365-1.129,1.365h-28.285
	c-1.298,0-2.194,0.29-2.697,0.876c-0.5,0.58-0.751,1.429-0.751,2.544v1.143c0,1.014,0.251,1.809,0.751,2.396
	c0.503,0.58,1.399,0.87,2.697,0.87h21.136c3.511,0,6.021,0.888,7.525,2.663c1.505,1.774,2.259,4.284,2.259,7.527v4.256
	c0,1.673-0.168,3.169-0.504,4.49c-0.333,1.313-0.887,2.43-1.661,3.345c-0.773,0.911-1.786,1.604-3.041,2.088
	s-2.802,0.724-4.64,0.724H172.95c-0.751,0-1.129-0.455-1.129-1.371v-6.082c0-0.912,0.378-1.367,1.129-1.367h29.729
	c1.295,0,2.204-0.278,2.729-0.836c0.521-0.558,0.783-1.497,0.783-2.811v-2.054c0-1.012-0.262-1.798-0.783-2.356
	c-0.523-0.557-1.434-0.836-2.729-0.836h-21.073c-3.511,0-6.021-0.876-7.525-2.622c-1.504-1.753-2.258-4.297-2.258-7.641v-3.347
	c0-1.569,0.167-3.003,0.503-4.295c0.333-1.297,0.888-2.394,1.661-3.311c0.774-0.91,1.787-1.605,3.041-2.088
	C178.281,5.239,179.83,5,181.667,5H212.273z"/>
<path fill="#FFFFFF" d="M262.709,45.023c0,0.948-0.769,1.717-1.716,1.717h-24.499c-2.845,0-5.218-0.279-7.118-0.837
	c-1.904-0.558-3.432-1.457-4.58-2.696c-1.149-1.246-1.975-2.84-2.475-4.791c-0.508-1.952-0.759-4.295-0.759-7.033V6.748
	c0-1.167,0.484-1.748,1.445-1.748h6.146c0.923,0,1.384,0.581,1.384,1.748V28.72c0,1.622,0.079,2.965,0.25,4.029
	c0.165,1.064,0.479,1.917,0.938,2.548c0.461,0.632,1.109,1.093,1.945,1.366c0.836,0.284,1.939,0.42,3.322,0.42h23.999
	c0.947,0,1.716,0.77,1.716,1.717L262.709,45.023L262.709,45.023z"/>
<path fill="#FFFFFF" d="M309.316,46.74c-0.712,0-1.213-0.354-1.509-1.064l-14.735-31.4c-0.171-0.302-0.397-0.456-0.688-0.456h-0.257
	c-0.29,0-0.519,0.154-0.688,0.456l-14.798,31.4c-0.165,0.353-0.359,0.619-0.564,0.796c-0.21,0.176-0.521,0.269-0.943,0.269h-6.958
	c-0.461,0-0.764-0.188-0.91-0.57c-0.148-0.381-0.114-0.826,0.091-1.332L284.543,8.42c0.587-1.263,1.253-2.151,2.004-2.658
	C287.303,5.25,288.39,5,289.813,5h5.138c1.383,0,2.446,0.251,3.203,0.762c0.751,0.507,1.423,1.395,2.003,2.658l17.188,36.417
	c0.205,0.506,0.239,0.951,0.091,1.332c-0.147,0.383-0.449,0.57-0.91,0.57H309.316z"/>
<rect x="322.429" y="7.691" fill="#FFFFFF" width="8.666" height="38.398"/>
<path fill="#FFFFFF" d="M86.124,69.791c-1.853,0-3.259-0.414-4.459-1.691l1.544-1.62c0.772,0.812,1.817,1.081,2.948,1.081
	c1.406,0,2.161-0.559,2.161-1.584c0-0.449-0.121-0.829-0.378-1.081c-0.239-0.231-0.516-0.358-1.079-0.448l-1.476-0.218
	c-1.047-0.161-1.816-0.503-2.365-1.062c-0.583-0.61-0.875-1.439-0.875-2.521c0-2.284,1.611-3.888,4.253-3.888
	c1.68,0,2.896,0.434,3.942,1.494l-1.509,1.565c-0.771-0.772-1.696-0.882-2.504-0.882c-1.268,0-1.886,0.738-1.886,1.62
	c0,0.323,0.103,0.666,0.361,0.918c0.239,0.233,0.634,0.433,1.132,0.503l1.439,0.217c1.114,0.162,1.817,0.485,2.332,0.99
	c0.652,0.646,0.942,1.583,0.942,2.717C90.649,68.388,88.677,69.791,86.124,69.791"/>
<path fill="#FFFFFF" d="M103.451,69.683v-5.669c0-1.277-0.771-1.709-1.474-1.709c-0.688,0-1.493,0.432-1.493,1.655v5.723h-2.229
	v-5.669c0-1.277-0.77-1.709-1.474-1.709c-0.703,0-1.491,0.432-1.491,1.709v5.669h-2.229v-9.376h2.178v0.862
	c0.582-0.629,1.406-0.971,2.228-0.971c0.994,0,1.801,0.379,2.367,1.188c0.753-0.828,1.559-1.188,2.674-1.188
	c0.893,0,1.696,0.307,2.194,0.827c0.721,0.757,0.978,1.638,0.978,2.664v5.992L103.451,69.683L103.451,69.683z"/>
<path fill="#FFFFFF" d="M112.993,69.683v-0.811c-0.6,0.631-1.167,0.899-2.194,0.899c-1.013,0-1.75-0.271-2.28-0.827
	c-0.48-0.521-0.737-1.277-0.737-2.105c0-1.493,0.977-2.719,3.051-2.719h2.11v-0.467c0-1.025-0.481-1.477-1.664-1.477
	c-0.857,0-1.251,0.217-1.714,0.773l-1.423-1.457c0.873-1.009,1.731-1.297,3.222-1.297c2.504,0,3.807,1.116,3.807,3.313v6.173
	L112.993,69.683L112.993,69.683z M112.942,65.724h-1.768c-0.806,0-1.251,0.396-1.251,1.063c0,0.646,0.412,1.08,1.285,1.08
	c0.617,0,1.013-0.055,1.406-0.451c0.241-0.233,0.327-0.61,0.327-1.188V65.724L112.942,65.724z"/>
<path fill="#FFFFFF" d="M122.76,62.862c-0.343-0.36-0.634-0.559-1.184-0.559c-0.685,0-1.438,0.538-1.438,1.729v5.649h-2.229v-9.376
	h2.178v0.898c0.429-0.539,1.285-1.008,2.246-1.008c0.873,0,1.49,0.234,2.108,0.883L122.76,62.862z"/>
<path fill="#FFFFFF" d="M128.841,69.683c-1.815,0-2.588-1.35-2.588-2.682v-4.644h-0.942v-1.78h0.942v-2.772h2.229v2.772h1.577v1.78
	h-1.577v4.499c0,0.54,0.239,0.846,0.771,0.846h0.807v1.979L128.841,69.683L128.841,69.683z"/>
<path fill="#FFFFFF" d="M140.273,69.791c-1.854,0-3.259-0.414-4.459-1.691l1.544-1.62c0.771,0.812,1.816,1.081,2.948,1.081
	c1.405,0,2.16-0.559,2.16-1.584c0-0.449-0.12-0.829-0.378-1.081c-0.238-0.231-0.515-0.358-1.079-0.448l-1.476-0.218
	c-1.046-0.161-1.816-0.503-2.365-1.062c-0.583-0.61-0.875-1.439-0.875-2.521c0-2.284,1.612-3.888,4.253-3.888
	c1.681,0,2.897,0.434,3.942,1.494l-1.508,1.565c-0.771-0.772-1.697-0.882-2.504-0.882c-1.269,0-1.887,0.738-1.887,1.62
	c0,0.323,0.104,0.666,0.361,0.918c0.24,0.233,0.634,0.433,1.132,0.503l1.439,0.217c1.115,0.162,1.817,0.485,2.333,0.99
	c0.651,0.646,0.941,1.583,0.941,2.717C144.798,68.388,142.826,69.791,140.273,69.791"/>
<path fill="#FFFFFF" d="M150.003,69.683c-1.815,0-2.588-1.35-2.588-2.682v-4.644h-0.942v-1.78h0.942v-2.772h2.229v2.772h1.577v1.78
	h-1.577v4.499c0,0.54,0.238,0.846,0.771,0.846h0.807v1.979L150.003,69.683L150.003,69.683z"/>
<path fill="#FFFFFF" d="M158.435,62.862c-0.345-0.36-0.635-0.559-1.185-0.559c-0.685,0-1.438,0.538-1.438,1.729v5.649h-2.23v-9.376
	h2.178v0.898c0.43-0.539,1.285-1.008,2.246-1.008c0.874,0,1.491,0.234,2.109,0.883L158.435,62.862z"/>
<path fill="#FFFFFF" d="M166.865,69.683V68.82c-0.583,0.646-1.406,0.971-2.228,0.971c-0.892,0-1.612-0.306-2.11-0.826
	c-0.719-0.758-0.908-1.639-0.908-2.664v-5.992h2.229v5.669c0,1.278,0.771,1.709,1.475,1.709c0.702,0,1.491-0.431,1.491-1.709v-5.669
	h2.229v9.376L166.865,69.683L166.865,69.683z"/>
<path fill="#FFFFFF" d="M175.432,69.791c-1.783,0-3.996-1.008-3.996-4.806s2.213-4.786,3.996-4.786c1.234,0,2.159,0.395,2.947,1.26
	l-1.509,1.584c-0.461-0.522-0.855-0.737-1.438-0.737c-0.531,0-0.943,0.196-1.27,0.61c-0.343,0.451-0.497,1.08-0.497,2.069
	c0,0.99,0.154,1.638,0.497,2.089c0.326,0.413,0.738,0.61,1.27,0.61c0.583,0,0.978-0.216,1.438-0.737l1.509,1.565
	C177.592,69.376,176.667,69.791,175.432,69.791"/>
<path fill="#FFFFFF" d="M183.245,69.683c-1.815,0-2.588-1.35-2.588-2.682v-4.644h-0.943v-1.78h0.943v-2.772h2.229v2.772h1.576v1.78
	h-1.576v4.499c0,0.54,0.238,0.846,0.77,0.846h0.807v1.979L183.245,69.683L183.245,69.683z"/>
<path fill="#FFFFFF" d="M191.967,69.683V68.82c-0.583,0.646-1.405,0.971-2.228,0.971c-0.892,0-1.612-0.306-2.11-0.826
	c-0.719-0.758-0.907-1.639-0.907-2.664v-5.992h2.229v5.669c0,1.278,0.771,1.709,1.475,1.709c0.702,0,1.49-0.431,1.49-1.709v-5.669
	h2.229v9.376L191.967,69.683L191.967,69.683z"/>
<path fill="#FFFFFF" d="M201.838,62.862c-0.344-0.36-0.634-0.559-1.185-0.559c-0.686,0-1.438,0.538-1.438,1.729v5.649h-2.229v-9.376
	h2.179v0.898c0.429-0.539,1.285-1.008,2.246-1.008c0.874,0,1.49,0.234,2.108,0.883L201.838,62.862z"/>
<path fill="#FFFFFF" d="M206.341,65.723c0,1.205,0.703,2.089,1.955,2.089c0.979,0,1.458-0.288,2.023-0.885l1.354,1.389
	c-0.907,0.953-1.782,1.477-3.395,1.477c-2.108,0-4.133-1.008-4.133-4.807c0-3.061,1.579-4.787,3.894-4.787
	c2.485,0,3.892,1.908,3.892,4.48v1.044H206.341z M209.529,63.115c-0.239-0.56-0.736-0.973-1.49-0.973
	c-0.756,0-1.252,0.413-1.492,0.973c-0.137,0.342-0.188,0.594-0.206,1.008h3.396C209.719,63.708,209.667,63.457,209.529,63.115"/>
<path fill="#FFFFFF" d="M217.258,69.791c-1.405,0-2.675-0.162-3.807-1.351l1.457-1.528c0.737,0.772,1.698,0.881,2.384,0.881
	c0.771,0,1.577-0.271,1.577-0.972c0-0.469-0.24-0.792-0.942-0.864l-1.405-0.145c-1.612-0.161-2.606-0.898-2.606-2.626
	c0-1.942,1.629-2.987,3.446-2.987c1.39,0,2.555,0.252,3.411,1.098l-1.371,1.457c-0.516-0.484-1.303-0.629-2.074-0.629
	c-0.892,0-1.269,0.433-1.269,0.898c0,0.344,0.139,0.738,0.926,0.811l1.406,0.145c1.767,0.182,2.656,1.169,2.656,2.753
	C221.047,68.8,219.366,69.791,217.258,69.791"/>
<path fill="#FFFFFF" d="M232.149,69.683v-0.811c-0.603,0.631-1.167,0.899-2.195,0.899c-1.012,0-1.749-0.271-2.28-0.827
	c-0.479-0.521-0.736-1.277-0.736-2.105c0-1.493,0.978-2.719,3.051-2.719h2.11v-0.467c0-1.025-0.481-1.477-1.663-1.477
	c-0.858,0-1.252,0.217-1.715,0.773l-1.424-1.457c0.873-1.009,1.731-1.297,3.223-1.297c2.504,0,3.807,1.116,3.807,3.313v6.173
	L232.149,69.683L232.149,69.683z M232.098,65.724h-1.768c-0.807,0-1.252,0.396-1.252,1.063c0,0.646,0.412,1.08,1.285,1.08
	c0.618,0,1.013-0.055,1.406-0.451c0.24-0.233,0.327-0.61,0.327-1.188L232.098,65.724L232.098,65.724z"/>
<path fill="#FFFFFF" d="M242.259,69.683v-5.669c0-1.277-0.771-1.709-1.474-1.709c-0.702,0-1.491,0.432-1.491,1.709v5.669h-2.229
	v-9.376h2.179v0.862c0.582-0.646,1.405-0.971,2.229-0.971c0.892,0,1.611,0.307,2.109,0.827c0.719,0.757,0.906,1.638,0.906,2.664
	v5.992L242.259,69.683L242.259,69.683z"/>
<path fill="#FFFFFF" d="M252.162,69.683V68.8c-0.616,0.721-1.269,0.99-2.211,0.99c-0.875,0-1.697-0.324-2.195-0.846
	c-0.891-0.938-0.906-2.556-0.906-3.96c0-1.403,0.017-3.005,0.906-3.94c0.498-0.521,1.305-0.846,2.18-0.846
	c0.907,0,1.594,0.252,2.176,0.936v-4.264h2.229v12.813H252.162z M250.585,62.305c-1.336,0-1.509,1.151-1.509,2.681
	c0,1.53,0.173,2.699,1.509,2.699c1.338,0,1.525-1.169,1.525-2.699C252.11,63.457,251.923,62.305,250.585,62.305"/>
<path fill="#FFFFFF" d="M265.031,69.791c-1.853,0-3.258-0.414-4.459-1.691l1.544-1.62c0.772,0.812,1.818,1.081,2.948,1.081
	c1.406,0,2.162-0.559,2.162-1.584c0-0.449-0.121-0.829-0.379-1.081c-0.239-0.231-0.516-0.358-1.079-0.448l-1.477-0.218
	c-1.046-0.161-1.815-0.503-2.366-1.062c-0.582-0.61-0.875-1.439-0.875-2.521c0-2.284,1.612-3.888,4.255-3.888
	c1.68,0,2.896,0.434,3.941,1.494l-1.509,1.565c-0.771-0.772-1.696-0.882-2.504-0.882c-1.269,0-1.886,0.738-1.886,1.62
	c0,0.323,0.104,0.666,0.359,0.918c0.241,0.233,0.635,0.433,1.133,0.503l1.438,0.217c1.116,0.162,1.818,0.485,2.333,0.99
	c0.652,0.646,0.941,1.583,0.941,2.717C269.557,68.388,267.585,69.791,265.031,69.791"/>
<path fill="#FFFFFF" d="M275.296,71.195c-0.188,0.521-0.395,0.917-0.669,1.205c-0.515,0.54-1.184,0.721-1.921,0.721h-0.874v-2.105
	h0.516c0.634,0,0.892-0.162,1.114-0.846l0.377-1.152l-3.053-8.71h2.35l1.853,5.795l1.783-5.795h2.349L275.296,71.195z"/>
<path fill="#FFFFFF" d="M283.708,69.791c-1.404,0-2.674-0.162-3.807-1.351l1.458-1.528c0.737,0.772,1.698,0.881,2.384,0.881
	c0.771,0,1.577-0.271,1.577-0.972c0-0.469-0.241-0.792-0.943-0.864l-1.404-0.145c-1.612-0.161-2.606-0.898-2.606-2.626
	c0-1.942,1.628-2.987,3.446-2.987c1.389,0,2.555,0.252,3.411,1.098l-1.371,1.457c-0.516-0.484-1.305-0.629-2.075-0.629
	c-0.892,0-1.27,0.433-1.27,0.898c0,0.344,0.14,0.738,0.928,0.811l1.405,0.145c1.767,0.182,2.657,1.169,2.657,2.753
	C287.498,68.8,285.816,69.791,283.708,69.791"/>
<path fill="#FFFFFF" d="M292.326,69.683c-1.816,0-2.588-1.35-2.588-2.682v-4.644h-0.943v-1.78h0.943v-2.772h2.229v2.772h1.577v1.78
	h-1.577v4.499c0,0.54,0.239,0.846,0.771,0.846h0.807v1.979L292.326,69.683L292.326,69.683z"/>
<path fill="#FFFFFF" d="M297.604,65.723c0,1.205,0.704,2.089,1.956,2.089c0.978,0,1.457-0.288,2.022-0.885l1.354,1.389
	c-0.908,0.953-1.782,1.477-3.393,1.477c-2.11,0-4.135-1.008-4.135-4.807c0-3.061,1.578-4.787,3.894-4.787
	c2.484,0,3.892,1.908,3.892,4.48v1.044H297.604z M300.794,63.115c-0.239-0.56-0.737-0.973-1.491-0.973
	c-0.755,0-1.251,0.413-1.492,0.973c-0.136,0.342-0.188,0.594-0.206,1.008h3.396C300.981,63.708,300.931,63.457,300.794,63.115"/>
<path fill="#FFFFFF" d="M315.978,69.683v-5.669c0-1.277-0.771-1.709-1.474-1.709c-0.688,0-1.492,0.432-1.492,1.655v5.723h-2.229
	v-5.669c0-1.277-0.771-1.709-1.475-1.709c-0.702,0-1.49,0.432-1.49,1.709v5.669h-2.229v-9.376h2.178v0.862
	c0.583-0.629,1.406-0.971,2.228-0.971c0.994,0,1.803,0.379,2.367,1.188c0.754-0.828,1.56-1.188,2.675-1.188
	c0.893,0,1.696,0.307,2.194,0.827c0.721,0.757,0.977,1.638,0.977,2.664v5.992L315.978,69.683L315.978,69.683z"/>
<path fill="#FFFFFF" d="M323.874,69.791c-1.405,0-2.675-0.162-3.807-1.351l1.457-1.528c0.737,0.772,1.698,0.881,2.385,0.881
	c0.771,0,1.576-0.271,1.576-0.972c0-0.469-0.24-0.792-0.941-0.864l-1.406-0.145c-1.612-0.161-2.606-0.898-2.606-2.626
	c0-1.942,1.629-2.987,3.447-2.987c1.389,0,2.554,0.252,3.411,1.098l-1.372,1.457c-0.515-0.484-1.303-0.629-2.074-0.629
	c-0.892,0-1.269,0.433-1.269,0.898c0,0.344,0.139,0.738,0.926,0.811l1.406,0.145c1.767,0.182,2.657,1.169,2.657,2.753
	C327.664,68.8,325.982,69.791,323.874,69.791"/>
<polygon fill="#FFFFFF" points="334.359,69.683 334.359,56.871 336.743,56.871 336.743,67.451 342.281,67.451 342.281,69.683 "/>
<path fill="#FFFFFF" d="M348.963,69.683v-0.811c-0.602,0.631-1.167,0.899-2.194,0.899c-1.013,0-1.75-0.271-2.281-0.827
	c-0.479-0.521-0.736-1.277-0.736-2.105c0-1.493,0.978-2.719,3.052-2.719h2.108v-0.467c0-1.025-0.48-1.477-1.663-1.477
	c-0.857,0-1.252,0.217-1.715,0.773l-1.423-1.457c0.873-1.009,1.731-1.297,3.223-1.297c2.504,0,3.808,1.116,3.808,3.313v6.173
	L348.963,69.683L348.963,69.683z M348.91,65.724h-1.767c-0.807,0-1.251,0.396-1.251,1.063c0,0.646,0.411,1.08,1.285,1.08
	c0.617,0,1.013-0.055,1.405-0.451c0.24-0.233,0.326-0.61,0.326-1.188L348.91,65.724L348.91,65.724z"/>
<path fill="#FFFFFF" d="M360.444,68.945c-0.497,0.521-1.303,0.846-2.178,0.846c-0.942,0-1.611-0.271-2.229-0.99v0.883h-2.158V56.871
	h2.229v4.264c0.582-0.684,1.251-0.936,2.159-0.936c0.875,0,1.681,0.323,2.178,0.846c0.893,0.937,0.908,2.537,0.908,3.94
	C361.353,66.39,361.337,68.009,360.444,68.945 M357.614,62.305c-1.336,0-1.507,1.151-1.507,2.681c0,1.53,0.171,2.699,1.507,2.699
	c1.338,0,1.509-1.169,1.509-2.699C359.123,63.457,358.952,62.305,357.614,62.305"/>
</svg>
