<?xml version="1.0" encoding="utf-8"?>
<!-- Generator: Adobe Illustrator 16.0.0, SVG Export Plug-In . SVG Version: 6.00 Build 0)  -->
<!DOCTYPE svg PUBLIC "-//W3C//DTD SVG 1.1//EN" "http://www.w3.org/Graphics/SVG/1.1/DTD/svg11.dtd">
<svg version="1.1" id="Layer_1" xmlns="http://www.w3.org/2000/svg" xmlns:xlink="http://www.w3.org/1999/xlink" x="0px" y="0px"
	 width="182px" height="144px" viewBox="0 0 182 144" enable-background="new 0 0 182 144" xml:space="preserve">
<g>
	<path fill="#fff" d="M28,143.901c-4,0-11.026-2.151-12.104-10.295L0.703,35.38c-0.206-1.04-1.029-6.237,2.224-10.276
		C4.452,23.209,7.455,21,13.066,21h33c5.435,0,8.4,3.668,9.389,6.055l10.512,19.616c0.108,0.202,0.121,0.222,0.174,0.4
		C66.313,47.382,66.804,48,68.066,48h87c8.441,0,11.958,6.646,12.638,10.188l14.245,81.264c0.089,0.31,0.137,0.674,0.137,1.012
		c0,1.933-1.566,3.537-3.5,3.537c-0.007,0-0.014,0-0.02,0H28v-3.599V143.901z M13.066,28c-2.281,0-3.855,0.469-4.679,1.492
		c-1.334,1.658-0.811,4.517-0.804,4.545c0.015,0.07,0.028,0.129,0.04,0.2l15.233,98.431c0.521,3.936,4.123,4.332,5.215,4.332h146.33
		L160.82,59.501c-0.148-0.674-1.207-4.501-5.754-4.501h-87c-4.868,0-7.481-3.143-8.354-5.156L49.188,30.156
		c-0.076-0.142-0.142-0.252-0.198-0.404C48.833,29.384,48.077,28,46.066,28H13.066z"/>
	<path fill="#fff" d="M178.662,144c-1.93,0-3.496-1.861-3.5-3.791l-0.223-101.784c0-1.215-0.186-2.901-1.063-3.733
		c-0.832-0.786-2.124-0.715-2.133-0.714c-0.11,0.011-0.157,0.022-0.268,0.022H78.066c-4.653,0-7.167-2.863-8.002-4.68L58.921,8.396
		C58.231,7.04,57.144,7,57.13,7l0,0H31.287C28.589,7,28,9.272,28,9.979v13.922c0,1.933-1.567,3.5-3.5,3.5s-3.5-1.567-3.5-3.5V9.828
		c0-0.085,0.036-0.121,0.042-0.207C21.327,5.734,24.315,0,31.287,0h25.779c1.963,0,5.944,0.967,8.065,5.141l11.173,20.98
		c0.105,0.198,0.094,0.151,0.129,0.274C76.584,26.593,77.009,27,78.066,27h93.299c0.959,0,4.398-0.08,7.188,2.457
		c2.246,2.043,3.386,4.999,3.386,8.835l0.223,101.913c0.004,1.934-1.561,2.795-3.492,3.795C178.666,144,178.664,144,178.662,144z"/>
</g>
</svg>
